<?xml version="1.0" encoding="UTF-8"?><svg id="Layer_1" xmlns="http://www.w3.org/2000/svg" viewBox="0 0 413.39 93.19"><defs><style>.cls-1{fill:#fff;}</style></defs><path class="cls-1" d="M97.46,18.83c-.33-7.98-6.9-14.34-14.96-14.34h-39.8c-7.98.34-14.34,6.92-14.34,14.98v17.28s-9.51,0-9.51,0h-.36c-2.24-.18-3.95-1.94-3.95-4.03v-12.87c2.73-1.29,4.61-4.07,4.61-7.29,0-4.45-3.61-8.06-8.06-8.06S3,8.1,3,12.55c0,3.22,1.88,5.99,4.61,7.29v12.94s.01.49.01.49c.26,5.84,5.21,10.45,11.21,10.45h9.51s0,14.91,0,14.91v.63c.34,7.98,6.92,14.34,14.98,14.34h39.8c7.98-.34,14.34-6.92,14.34-14.98V18.83ZM90.56,58.63v.49c-.27,4.22-3.78,7.57-8.06,7.57h-39.66c-4.22-.27-7.57-3.78-7.57-8.06V18.97c.27-4.22,3.78-7.57,8.06-7.57h39.17c4.45,0,8.06,3.61,8.06,8.06v39.17Z"/><path class="cls-1" d="M49.24,58.3V19.88h12.58c3.99,0,7.45.81,10.39,2.42,2.94,1.62,5.22,3.86,6.83,6.73,1.62,2.87,2.42,6.21,2.42,10.03s-.81,7.12-2.42,10.03c-1.62,2.91-3.89,5.17-6.83,6.78-2.94,1.62-6.4,2.42-10.39,2.42h-12.58ZM55.32,52.88h6.6c2.72,0,5.07-.57,7.06-1.7,1.99-1.13,3.54-2.73,4.64-4.8,1.1-2.06,1.65-4.5,1.65-7.32s-.55-5.25-1.65-7.3c-1.1-2.04-2.65-3.64-4.64-4.77-1.99-1.13-4.35-1.7-7.06-1.7h-6.6v27.59Z"/><path class="cls-1" d="M122.41,55.65c-3.03,0-5.74-.72-8.13-2.16s-4.27-3.41-5.63-5.92c-1.36-2.51-2.04-5.31-2.04-8.42s.68-5.95,2.04-8.4c1.36-2.45,3.19-4.38,5.48-5.8,2.29-1.42,4.9-2.13,7.81-2.13,2.33,0,4.4.42,6.21,1.25,1.81.84,3.34,1.96,4.61,3.38,1.26,1.42,2.23,3.03,2.92,4.84.68,1.81,1.02,3.68,1.02,5.63,0,.47-.03.95-.09,1.46-.06.51-.13,1.01-.2,1.52h-25.77v-4.72h22.62l-2.62,2.1c.39-2.02.21-3.83-.52-5.42-.74-1.59-1.83-2.86-3.27-3.79-1.44-.93-3.07-1.4-4.9-1.4s-3.5.48-5.01,1.43c-1.52.95-2.69,2.28-3.53,3.99-.84,1.71-1.18,3.75-1.02,6.12-.16,2.29.2,4.31,1.08,6.04.88,1.73,2.12,3.07,3.73,4.02,1.61.95,3.37,1.43,5.28,1.43,2.1,0,3.87-.49,5.31-1.46,1.44-.97,2.6-2.22,3.5-3.73l4.55,2.33c-.62,1.44-1.58,2.75-2.89,3.94-1.3,1.19-2.85,2.13-4.64,2.83-1.79.7-3.75,1.05-5.89,1.05Z"/><path class="cls-1" d="M150.74,54.95l-12.3-31.43h6.06l9.85,26.59h-2.1l9.91-26.59h6.06l-12.36,31.43h-5.13Z"/><path class="cls-1" d="M179.95,55.65c-2.06,0-3.89-.38-5.48-1.14-1.59-.76-2.84-1.81-3.73-3.15-.89-1.34-1.34-2.89-1.34-4.63s.37-3.18,1.11-4.52c.74-1.34,1.88-2.48,3.41-3.41,1.54-.93,3.47-1.59,5.8-1.98l11.6-1.92v4.55l-10.38,1.81c-2.02.35-3.49.98-4.4,1.9-.91.91-1.37,2.05-1.37,3.41,0,1.28.51,2.35,1.55,3.21,1.03.86,2.32,1.28,3.88,1.28,1.98,0,3.7-.42,5.16-1.25,1.46-.83,2.59-1.97,3.41-3.41.82-1.44,1.22-3.01,1.22-4.72v-8.05c0-1.71-.62-3.1-1.87-4.17-1.24-1.07-2.9-1.6-4.96-1.6-1.79,0-3.37.47-4.75,1.4-1.38.93-2.4,2.14-3.06,3.62l-4.72-2.45c.58-1.44,1.52-2.73,2.8-3.88,1.28-1.15,2.78-2.05,4.49-2.71,1.71-.66,3.5-.99,5.36-.99,2.41,0,4.53.46,6.36,1.37,1.83.91,3.26,2.19,4.29,3.82,1.03,1.63,1.54,3.5,1.54,5.6v21.34h-5.31v-5.95l.99.41c-.66,1.21-1.57,2.28-2.71,3.24-1.15.95-2.47,1.69-3.96,2.22-1.5.52-3.14.79-4.93.79Z"/><path class="cls-1" d="M203.04,54.95v-31.43h5.36v6.12l-.87-.52c.78-1.98,2.03-3.53,3.76-4.64,1.73-1.11,3.76-1.66,6.09-1.66s4.27.5,6.04,1.52c1.77,1.01,3.17,2.41,4.2,4.2,1.03,1.79,1.55,3.81,1.55,6.06v20.35h-5.48v-18.6c0-1.75-.31-3.23-.93-4.43-.62-1.2-1.51-2.14-2.65-2.8-1.15-.66-2.46-.99-3.94-.99s-2.79.33-3.94.99c-1.15.66-2.05,1.6-2.71,2.83-.66,1.22-.99,2.69-.99,4.4v18.6h-5.48Z"/><path class="cls-1" d="M248.52,55.3c-3.07,0-5.44-.87-7.11-2.62-1.67-1.75-2.51-4.22-2.51-7.41v-16.56h-5.66v-5.19h1.17c1.4,0,2.5-.43,3.29-1.28.8-.85,1.2-1.98,1.2-3.38v-2.57h5.48v7.23h7.06v5.19h-7.06v16.38c0,1.05.17,1.96.5,2.74.33.78.88,1.39,1.66,1.84.78.45,1.81.67,3.09.67.27,0,.61-.02,1.02-.06.41-.04.79-.08,1.14-.12v4.78c-.51.12-1.07.2-1.69.26-.62.06-1.15.09-1.57.09Z"/><path class="cls-1" d="M272.9,55.35V11.92h14.29c4.39,0,8.22.89,11.49,2.68,3.26,1.79,5.79,4.31,7.58,7.58,1.79,3.27,2.68,7.08,2.68,11.43s-.89,8.16-2.68,11.43c-1.79,3.27-4.32,5.8-7.58,7.61-3.27,1.81-7.09,2.71-11.49,2.71h-14.29ZM278.68,50.11h8.57c3.23,0,6.01-.68,8.37-2.04,2.35-1.36,4.17-3.27,5.45-5.74,1.28-2.47,1.92-5.37,1.92-8.72s-.65-6.25-1.95-8.72c-1.3-2.47-3.13-4.37-5.48-5.71-2.35-1.34-5.12-2.01-8.31-2.01h-8.57v32.94Z"/><path class="cls-1" d="M329.23,56.05c-2.99,0-5.71-.71-8.16-2.13-2.45-1.42-4.4-3.37-5.86-5.86-1.46-2.49-2.19-5.31-2.19-8.45s.72-5.95,2.16-8.4c1.44-2.45,3.38-4.39,5.83-5.83,2.45-1.44,5.19-2.16,8.22-2.16s5.83.71,8.28,2.13c2.45,1.42,4.38,3.35,5.8,5.8,1.42,2.45,2.13,5.27,2.13,8.45s-.74,6.02-2.21,8.48c-1.48,2.47-3.43,4.41-5.86,5.83-2.43,1.42-5.14,2.13-8.13,2.13ZM329.23,50.81c1.98,0,3.76-.49,5.33-1.46,1.57-.97,2.82-2.31,3.73-4.02.91-1.71,1.37-3.62,1.37-5.71s-.46-3.98-1.37-5.66c-.91-1.67-2.16-2.99-3.73-3.96-1.57-.97-3.35-1.46-5.33-1.46s-3.7.49-5.28,1.46c-1.57.97-2.83,2.29-3.76,3.96-.93,1.67-1.4,3.56-1.4,5.66s.47,4,1.4,5.71c.93,1.71,2.19,3.05,3.76,4.02,1.58.97,3.33,1.46,5.28,1.46Z"/><path class="cls-1" d="M365.9,56.05c-3.11,0-5.85-.72-8.22-2.16-2.37-1.44-4.25-3.4-5.63-5.89-1.38-2.49-2.07-5.29-2.07-8.4s.68-5.95,2.04-8.4c1.36-2.45,3.24-4.39,5.63-5.83,2.39-1.44,5.14-2.16,8.25-2.16,2.06,0,3.98.37,5.77,1.11,1.79.74,3.36,1.74,4.72,3,1.36,1.26,2.35,2.71,2.97,4.34l-4.84,2.39c-.74-1.67-1.87-3.01-3.38-4.02-1.52-1.01-3.27-1.52-5.25-1.52s-3.62.48-5.16,1.43c-1.54.95-2.75,2.27-3.64,3.96-.89,1.69-1.34,3.61-1.34,5.74s.45,3.99,1.34,5.68c.89,1.69,2.11,3.02,3.64,3.99,1.54.97,3.26,1.46,5.16,1.46s3.72-.51,5.22-1.55c1.5-1.03,2.63-2.4,3.41-4.11l4.84,2.45c-.62,1.63-1.61,3.08-2.97,4.34-1.36,1.26-2.94,2.27-4.72,3s-3.71,1.11-5.77,1.11Z"/><path class="cls-1" d="M396.57,56.05c-3.15,0-5.89-.78-8.22-2.33-2.33-1.55-4-3.65-5.01-6.3l4.37-2.1c.89,1.87,2.12,3.34,3.67,4.43,1.55,1.09,3.28,1.63,5.19,1.63,1.67,0,3.07-.41,4.2-1.22,1.13-.82,1.69-1.88,1.69-3.21,0-.93-.26-1.68-.79-2.24-.52-.56-1.15-1.01-1.87-1.34-.72-.33-1.41-.57-2.07-.73l-4.72-1.34c-2.8-.78-4.85-1.93-6.15-3.47-1.3-1.54-1.95-3.31-1.95-5.33,0-1.87.48-3.49,1.43-4.87.95-1.38,2.25-2.46,3.91-3.24,1.65-.78,3.51-1.17,5.57-1.17,2.76,0,5.24.7,7.43,2.1,2.2,1.4,3.76,3.36,4.69,5.89l-4.43,2.04c-.7-1.63-1.75-2.92-3.15-3.85-1.4-.93-2.97-1.4-4.72-1.4-1.59,0-2.86.39-3.79,1.17-.93.78-1.4,1.79-1.4,3.03,0,.86.23,1.56.7,2.13.47.56,1.03.99,1.69,1.28.66.29,1.3.54,1.92.73l5.13,1.52c2.57.74,4.56,1.89,5.98,3.44,1.42,1.56,2.13,3.42,2.13,5.6,0,1.75-.49,3.32-1.46,4.72-.97,1.4-2.31,2.49-4.02,3.27-1.71.78-3.69,1.17-5.95,1.17Z"/></svg>